<svg width="338" height="338" xmlns="http://www.w3.org/2000/svg" xmlns:xlink="http://www.w3.org/1999/xlink" xml:space="preserve" overflow="hidden"><defs><clipPath id="clip0"><path d="M587.509 171.358 761.62 334.801 598.177 508.912 424.066 345.469Z" fill-rule="evenodd" clip-rule="evenodd"/></clipPath><clipPath id="clip1"><path d="M587.509 171.358 761.62 334.801 598.177 508.912 424.066 345.469Z" fill-rule="evenodd" clip-rule="evenodd"/></clipPath><clipPath id="clip2"><path d="M587.509 171.358 761.62 334.801 598.177 508.912 424.066 345.469Z" fill-rule="evenodd" clip-rule="evenodd"/></clipPath></defs><g transform="translate(-424 -171)"><g clip-path="url(#clip0)"><g clip-path="url(#clip1)"><g clip-path="url(#clip2)"><path d="M704.873 336.121 704.998 336.239C705.058 336.298 705.112 336.362 705.159 336.431 705.095 336.497 705.022 336.555 704.943 336.603L558.163 415.969C557.933 416.094 557.773 416.053 557.757 416.038 557.741 416.023 557.686 415.859 557.846 415.511L589.494 342.181 590.42 340.034 589.36 337.954 553.094 266.656C552.969 266.426 553.006 266.266 553.023 266.248 553.04 266.23 553.202 266.177 553.433 266.292L704.866 336.115 704.866 336.115M708.396 332.605C707.981 332.184 707.494 331.841 706.956 331.594L555.521 261.77C552.971 260.472 549.851 261.488 548.554 264.039 547.75 265.618 547.81 267.499 548.711 269.024L584.926 340.21 553.279 413.54C551.981 416.09 552.997 419.21 555.548 420.507 557.127 421.311 559.008 421.251 560.533 420.35L707.434 340.913C708.92 340.11 709.924 338.634 710.125 336.957 710.255 335.32 709.619 333.715 708.403 332.612Z"/></g></g></g></g></svg>