<?xml version="1.0" standalone="no"?>
<!DOCTYPE svg PUBLIC "-//W3C//DTD SVG 20010904//EN"
 "http://www.w3.org/TR/2001/REC-SVG-20010904/DTD/svg10.dtd">
<svg version="1.0" xmlns="http://www.w3.org/2000/svg"
 width="1250.000000pt" height="1250.000000pt" viewBox="0 0 1250.000000 1250.000000"
 preserveAspectRatio="xMidYMid meet">

<g transform="translate(0.000000,1250.000000) scale(0.100000,-0.100000)"
fill="#000000" stroke="none">
<path d="M5935 11939 c-1015 -57 -2000 -385 -2835 -942 -2200 -1468 -3104
-4224 -2200 -6707 223 -613 555 -1185 996 -1715 139 -167 512 -540 679 -679
383 -318 747 -555 1180 -767 1333 -652 2874 -755 4288 -288 468 155 947 389
1357 662 633 421 1173 961 1597 1597 1130 1694 1262 3891 343 5710 -869 1720
-2540 2886 -4440 3100 -334 37 -650 47 -965 29z m590 -179 c1135 -62 2159
-434 3050 -1107 223 -169 372 -299 576 -502 433 -434 749 -872 1029 -1426 326
-646 504 -1284 571 -2045 26 -293 14 -790 -27 -1120 -104 -840 -394 -1623
-869 -2350 -332 -509 -796 -1001 -1300 -1379 -1492 -1117 -3462 -1405 -5214
-760 -607 224 -1194 570 -1696 1000 -154 132 -442 420 -574 574 -197 230 -406
521 -572 795 -170 283 -393 776 -497 1100 -334 1043 -357 2147 -66 3197 93
337 202 619 369 958 276 558 604 1015 1045 1455 351 352 727 641 1149 884 914
527 1980 783 3026 726z"/>
<path d="M6065 11484 c-32 -35 -32 -74 1 -113 52 -62 144 -26 144 57 0 78 -92
113 -145 56z"/>
<path d="M5845 11475 c-54 -53 -16 -145 60 -145 49 0 85 36 85 85 0 49 -36 85
-85 85 -25 0 -44 -8 -60 -25z"/>
<path d="M7524 11340 c-31 -12 -54 -49 -54 -86 0 -39 48 -84 89 -84 43 0 81
41 81 88 0 61 -62 105 -116 82z"/>
<path d="M6186 11263 l-59 -4 6 -82 c4 -45 10 -150 13 -232 6 -129 5 -155 -10
-182 -20 -41 -43 -53 -97 -53 -36 0 -47 6 -84 43 l-42 42 -12 165 c-6 91 -15
189 -18 219 l-6 54 -70 -6 c-38 -3 -72 -8 -74 -11 -11 -11 18 -427 34 -478 33
-113 163 -198 282 -185 123 13 235 92 267 191 15 46 16 70 5 251 -16 273 -16
275 -49 273 -15 -1 -54 -3 -86 -5z"/>
<path d="M6536 11259 c-10 -30 -56 -663 -49 -670 4 -4 41 -9 80 -11 l73 -4 5
31 c2 16 12 104 20 195 9 91 17 169 19 175 1 5 64 -90 140 -212 76 -122 143
-226 149 -231 19 -15 167 -26 167 -13 0 6 18 152 40 323 22 172 40 318 40 324
0 11 -166 42 -175 33 -1 -2 -11 -87 -20 -189 -9 -102 -18 -186 -20 -188 -1 -1
-71 94 -154 212 l-152 214 -66 7 c-37 4 -72 9 -80 12 -7 3 -15 -1 -17 -8z"/>
<path d="M4828 11071 c-42 -14 -79 -28 -82 -31 -6 -6 -40 -679 -35 -685 2 -2
39 6 82 18 l77 22 0 61 c0 37 5 65 13 71 6 6 54 21 104 34 l93 24 52 -52 53
-52 78 25 c54 17 75 29 70 37 -9 14 -412 539 -422 548 -3 4 -41 -5 -83 -20z
m127 -306 l46 -60 -48 -17 c-73 -25 -72 -25 -67 40 6 65 13 106 19 101 2 -2
24 -31 50 -64z"/>
<path d="M7415 11088 c-13 -41 -155 -590 -155 -601 0 -9 29 -23 80 -37 44 -13
82 -21 84 -19 3 4 168 608 170 623 1 9 -119 43 -157 45 -10 1 -19 -5 -22 -11z"/>
<path d="M7724 10948 c3 -50 6 -212 6 -360 l0 -269 62 -29 61 -29 61 56 c117
108 466 448 466 453 0 4 -41 23 -91 43 -81 33 -93 36 -108 23 -9 -8 -70 -75
-136 -149 l-120 -134 -7 176 c-11 271 1 238 -97 277 -47 19 -89 34 -94 34 -6
0 -7 -35 -3 -92z"/>
<path d="M4321 10894 c-41 -19 -76 -36 -77 -37 -2 -1 -9 -44 -18 -96 -8 -51
-16 -95 -18 -96 -2 -2 -46 16 -97 41 -51 24 -98 44 -103 44 -17 0 -169 -92
-163 -99 3 -3 83 -46 177 -96 l171 -90 59 -135 c32 -74 62 -138 67 -143 7 -7
129 30 159 48 1 1 -26 69 -62 152 l-64 149 29 170 c15 93 30 181 33 197 7 35
-1 34 -93 -9z"/>
<path d="M8342 10418 c-90 -160 -162 -291 -160 -293 11 -9 307 -164 318 -167
12 -3 80 101 80 122 0 5 -35 27 -79 51 l-79 42 30 47 30 48 75 -40 c61 -33 77
-38 84 -27 5 8 22 37 39 65 l30 52 -75 41 c-41 23 -75 43 -75 46 0 12 43 75
52 75 5 0 39 -16 75 -37 53 -29 67 -33 74 -22 4 8 23 39 43 69 l35 55 -157 82
c-86 45 -161 82 -167 82 -5 0 -83 -131 -173 -291z"/>
<path d="M3450 10430 c-48 -32 -75 -56 -74 -67 1 -45 149 -653 159 -653 5 0
38 18 72 39 l61 39 -18 59 -18 58 94 62 93 63 61 -36 c33 -19 64 -34 68 -32
25 11 132 82 132 88 0 8 -526 420 -544 425 -6 2 -45 -19 -86 -45z m203 -264
l57 -44 -50 -32 c-28 -18 -52 -31 -54 -29 -4 5 -26 119 -26 136 0 20 11 16 73
-31z"/>
<path d="M5845 10404 c-1825 -179 -3326 -1536 -3685 -3329 -62 -314 -74 -446
-75 -820 0 -363 8 -466 61 -755 196 -1073 803 -2023 1697 -2657 177 -126 318
-210 522 -314 448 -226 881 -357 1410 -426 201 -26 749 -26 950 0 534 69 985
207 1430 436 787 405 1417 1038 1816 1826 226 448 357 880 426 1410 28 219 26
760 -5 985 -68 497 -191 909 -398 1331 -639 1301 -1908 2176 -3353 2313 -202
20 -599 19 -796 0z m668 -985 c823 -10 1542 -19 1596 -19 l99 0 547 -957 c301
-527 550 -961 552 -966 2 -4 -134 -6 -303 -5 l-307 3 -392 710 -392 710 -1587
0 -1587 0 -805 -1289 c-500 -802 -803 -1295 -799 -1305 7 -18 1545 -2742 1555
-2754 6 -7 3150 -61 3155 -55 1 2 190 317 420 701 l418 697 289 0 289 0 -12
-22 c-12 -23 -1119 -1902 -1122 -1905 -1 -1 -307 6 -680 15 l-677 17 -108 195
-109 195 -69 8 c-38 4 -154 6 -257 5 l-189 -3 -132 -202 c-72 -111 -134 -205
-138 -208 -12 -13 -1382 25 -1394 38 -12 12 -1850 3264 -1856 3283 -2 8 596
976 1855 3002 l89 142 276 -6 c152 -3 951 -14 1775 -25z m-158 -765 c748 -9
1360 -17 1361 -17 0 -1 313 -558 694 -1237 381 -679 700 -1247 708 -1261 14
-25 1 -48 -719 -1212 l-733 -1187 -141 0 c-188 0 -2719 31 -2721 33 -68 116
-1387 2453 -1390 2465 -3 10 270 482 696 1202 386 652 708 1195 716 1208 18
27 -167 26 1529 6z m213 -5514 c50 -83 92 -156 91 -163 0 -7 -42 -82 -93 -167
l-92 -155 -186 -3 -187 -2 -96 160 -95 161 61 117 c34 64 73 136 86 160 l24
42 197 0 197 0 93 -150z"/>
<path d="M5644 8616 c-62 -27 -109 -117 -121 -228 -3 -32 -7 -58 -9 -58 -2 0
-38 12 -81 26 -108 36 -245 38 -320 5 -102 -45 -166 -142 -193 -292 -28 -153
33 -341 161 -494 l41 -50 -63 -7 c-35 -3 -114 -11 -176 -17 -283 -28 -520
-127 -619 -256 -24 -33 -27 -44 -26 -107 2 -135 59 -265 152 -352 l57 -52 -51
-18 c-211 -74 -376 -209 -421 -346 -23 -68 -20 -170 5 -255 19 -61 30 -78 84
-130 217 -210 679 -279 1231 -185 61 10 118 22 127 25 14 6 17 -5 22 -72 23
-308 48 -452 112 -636 93 -267 236 -475 434 -634 117 -94 400 -285 530 -359
47 -26 114 -73 149 -103 181 -158 241 -197 361 -236 82 -25 203 -35 214 -16 3
5 -7 14 -24 19 -58 21 -174 105 -249 181 -107 108 -198 241 -288 420 l-78 154
1 106 c0 117 17 195 64 298 25 54 33 63 55 63 61 0 152 -75 233 -193 71 -102
80 -223 26 -350 -34 -81 -38 -108 -21 -131 14 -19 16 -19 39 -4 68 45 110 288
73 428 -22 87 -83 201 -148 280 -44 53 -217 350 -217 372 0 4 18 9 40 13 48 8
83 -11 146 -77 91 -96 144 -182 175 -283 11 -39 42 -119 67 -180 52 -125 59
-123 61 18 1 100 -30 253 -76 377 -37 99 -112 256 -144 301 -16 24 -17 30 -4
78 7 29 16 55 18 57 10 10 114 -116 145 -174 18 -34 56 -133 84 -220 51 -161
81 -232 97 -232 15 0 24 104 17 173 -10 86 -68 255 -123 357 -99 184 -189 296
-345 427 -43 36 -75 70 -72 74 11 18 71 8 120 -20 60 -35 146 -126 213 -225
78 -114 149 -244 171 -311 24 -72 61 -115 84 -96 12 10 12 20 0 74 -72 312
-227 583 -423 737 -45 35 -81 67 -81 71 0 4 8 17 18 29 17 21 21 22 55 11 74
-25 202 -166 314 -346 27 -44 57 -102 67 -128 36 -95 103 -99 94 -6 -10 95
-122 285 -287 484 -79 96 -88 110 -70 113 12 2 49 -10 84 -27 74 -37 209 -172
270 -270 48 -77 81 -114 98 -108 36 11 1 149 -63 245 -85 126 -266 270 -450
357 -47 22 -86 40 -88 41 -2 1 4 25 14 53 19 61 15 184 -7 206 -8 7 -129 54
-269 103 -140 49 -263 92 -272 96 -14 6 -22 -2 -40 -38 -12 -25 -25 -46 -28
-46 -10 0 -120 406 -120 444 0 40 42 245 60 291 l11 29 23 -41 c21 -37 23 -50
19 -129 -6 -106 12 -195 58 -286 36 -71 134 -178 197 -215 39 -23 46 -24 90
-13 68 16 143 61 207 125 113 113 155 215 162 397 5 105 3 125 -21 209 -15 51
-39 114 -53 141 -29 53 -37 55 -134 39 l-47 -7 -22 45 c-31 63 -36 137 -13
181 25 49 99 103 127 93 39 -14 85 -7 111 17 48 45 23 118 -46 135 -39 10 -97
-18 -112 -55 -8 -17 -33 -43 -60 -60 -106 -67 -138 -192 -82 -325 18 -46 19
-55 2 -55 -37 0 -179 -83 -239 -139 l-66 -61 -77 136 c-227 400 -343 548 -473
598 -51 19 -135 20 -178 2z m103 -183 c-4 -65 -9 -163 -13 -218 l-6 -100 184
-270 c102 -148 187 -279 190 -290 140 -485 168 -594 166 -622 l-3 -33 -106 84
-106 84 -17 132 c-52 389 -191 744 -377 962 l-49 56 0 99 c0 54 5 116 11 137
15 54 59 96 100 96 l32 0 -6 -117z m154 30 c15 -15 33 -39 42 -53 14 -23 123
-607 114 -616 -4 -5 -240 337 -241 351 -1 19 15 270 21 317 6 53 16 53 64 1z
m-651 -228 c148 -169 300 -454 300 -562 0 -55 23 -144 47 -180 9 -13 29 -31
44 -39 18 -9 47 -46 79 -99 27 -47 50 -88 50 -90 0 -3 -45 18 -100 46 -82 42
-101 56 -106 78 -22 103 -88 284 -119 327 -116 160 -195 305 -240 438 -25 73
-33 151 -16 144 4 -1 32 -30 61 -63z m163 22 c240 -126 444 -507 522 -977 8
-52 18 -106 21 -120 5 -25 5 -25 -15 -5 -11 11 -63 94 -115 186 -80 138 -101
168 -130 182 -40 18 -49 43 -64 168 -17 137 -117 340 -259 526 -71 94 -68 97
40 40z m-300 -90 c10 -39 42 -121 71 -182 58 -120 162 -295 176 -295 21 0 121
-262 106 -278 -2 -2 -42 8 -88 23 -70 23 -90 34 -127 73 -92 99 -166 200 -205
281 -35 74 -40 95 -44 172 -3 69 0 102 17 157 19 63 52 122 69 122 4 0 15 -33
25 -73z m1079 -147 c24 -43 24 -47 10 -80 -8 -19 -23 -62 -32 -95 -15 -50 -19
-56 -24 -35 -9 39 -66 367 -66 382 0 12 56 -75 112 -172z m-1037 -615 c145
-25 275 -70 436 -151 83 -42 149 -77 147 -80 -3 -2 -71 19 -152 46 -139 46
-162 51 -371 73 l-222 24 -62 44 c-33 23 -61 46 -61 50 0 9 107 18 160 13 19
-1 76 -10 125 -19z m-324 -77 l91 -63 -109 -3 c-105 -3 -268 10 -329 27 l-29
8 45 23 c50 27 183 69 218 69 13 1 64 -27 113 -61z m-362 -123 c141 -29 310
-39 449 -25 70 7 138 13 151 13 56 -2 324 -161 485 -289 l59 -47 -67 -25 -67
-25 -77 48 c-42 27 -92 57 -110 68 -27 16 -62 22 -185 29 -305 17 -345 23
-417 62 -93 50 -238 96 -310 99 l-60 2 0 34 c0 40 35 84 59 76 9 -2 49 -11 90
-20z m1246 -116 l300 -99 125 -98 125 -98 17 -75 c30 -135 28 -137 -54 -55
-122 121 -255 186 -426 208 -85 11 -85 11 -171 80 -47 38 -138 104 -202 146
-64 42 -125 83 -135 90 -16 10 -7 11 51 6 51 -4 152 -33 370 -105z m-1220 -84
c28 -9 95 -38 151 -65 113 -53 123 -55 399 -71 l190 -10 111 -70 c61 -38 116
-69 123 -69 7 0 61 16 119 36 99 34 112 36 197 31 138 -7 253 -60 370 -171
l50 -47 -175 6 c-410 14 -834 56 -1115 111 -280 55 -393 94 -470 166 -42 38
-105 140 -105 169 0 16 88 6 155 -16z m2078 -286 c159 -90 330 -199 342 -219
4 -7 -67 -127 -101 -168 -1 -2 -63 41 -137 97 -135 101 -244 172 -283 185 -24
7 -34 41 -34 117 0 46 17 79 42 79 6 0 83 -41 171 -91z m-1915 -64 c330 -83
849 -144 1390 -164 128 -4 235 -11 238 -14 6 -6 -20 -92 -35 -115 -6 -10 -95
-4 -462 32 -250 25 -522 53 -605 61 -185 18 -306 39 -382 65 -77 26 -232 51
-377 59 l-120 7 40 18 c32 15 199 74 213 76 2 0 47 -11 100 -25z m-169 -166
c114 -11 202 -28 356 -68 90 -23 286 -48 675 -86 145 -14 265 -27 267 -29 2
-2 -38 -6 -89 -10 -71 -5 -98 -12 -113 -26 -53 -50 -63 -51 -603 -56 -455 -4
-529 -3 -722 16 -118 11 -219 20 -224 20 -15 0 4 82 31 131 51 95 93 116 237
118 39 1 122 -4 185 -10z m1691 -245 c-23 -27 -44 -33 -172 -48 -171 -22 -265
-40 -463 -91 -271 -70 -447 -93 -519 -65 -23 8 -42 -1 -163 -76 -76 -47 -145
-90 -155 -95 -16 -9 -148 16 -262 48 -41 11 250 124 448 175 114 28 136 31
376 37 270 7 277 9 370 65 17 11 106 23 285 39 143 14 262 25 264 26 2 0 -2
-6 -9 -15z m325 -216 c178 -150 323 -284 314 -292 -3 -3 -61 14 -129 38 -133
47 -266 77 -420 98 -171 22 -557 14 -780 -17 l-35 -5 40 18 c137 64 782 301
820 301 11 0 93 -61 190 -141z m-2200 112 c116 -11 248 -20 295 -20 l85 -1
-80 -30 c-44 -16 -134 -56 -201 -88 l-121 -59 -59 32 c-72 38 -161 122 -170
159 -8 33 -23 33 251 7z m1295 -151 c-183 -73 -246 -94 -335 -109 -126 -22
-354 -43 -403 -38 -32 3 -31 4 50 53 l83 49 120 2 c134 2 227 18 495 88 96 25
184 45 195 45 11 0 -81 -41 -205 -90z m729 -463 c99 -18 207 -47 282 -75 l54
-21 83 -167 c79 -158 83 -168 65 -180 -25 -19 -78 -9 -178 33 -129 53 -185 59
-525 59 -168 0 -362 -4 -431 -8 l-125 -8 -33 153 c-18 84 -35 160 -37 169 -3
9 2 19 11 22 14 6 190 31 280 41 93 9 472 -3 554 -18z m6 -661 c50 -8 126 -25
170 -37 l80 -23 -2 -65 c-1 -36 -4 -83 -8 -106 l-6 -41 -82 -6 c-45 -4 -177
-22 -292 -41 l-210 -35 -53 52 c-29 29 -94 104 -143 167 l-89 115 56 13 c147
33 399 36 579 7z"/>
<path d="M7303 8448 c-34 -9 -63 -41 -63 -70 0 -12 -8 -18 -22 -18 -37 0 -83
-35 -103 -76 -15 -29 -19 -60 -19 -121 l1 -83 -38 6 -39 6 26 -61 c30 -75 60
-202 69 -292 13 -130 -29 -283 -106 -380 -41 -52 -177 -160 -253 -200 l-61
-33 54 -23 c68 -30 203 -63 257 -63 38 0 43 -3 59 -37 24 -49 24 -101 1 -152
-19 -42 -19 -42 1 -63 15 -14 27 -18 43 -13 51 16 89 189 56 255 -21 43 -20
57 4 65 23 7 56 -9 70 -35 15 -28 12 -131 -5 -164 -18 -33 -12 -46 20 -46 54
0 123 149 110 239 -7 47 -50 101 -80 101 -9 0 -15 3 -13 8 59 115 101 212 117
272 52 186 3 367 -135 504 -69 68 -83 103 -84 209 0 49 4 62 26 84 23 23 30
25 72 18 87 -13 104 -10 135 25 23 26 28 38 23 63 -12 62 -61 91 -123 75z"/>
<path d="M7376 8008 c5 -7 20 -31 35 -53 91 -135 111 -344 49 -507 -10 -26
-14 -48 -9 -48 21 0 81 66 106 118 26 53 28 65 28 182 0 116 -2 128 -25 165
-33 54 -98 123 -131 141 -35 18 -63 19 -53 2z"/>
<path d="M8859 10198 c-84 -117 -171 -236 -192 -265 l-37 -52 68 -40 c37 -23
72 -41 78 -41 5 1 37 37 72 81 l62 81 0 -130 0 -130 68 -49 c37 -28 73 -54 81
-58 12 -7 13 16 8 152 l-7 160 63 0 c78 0 133 26 176 84 57 78 51 156 -17 231
-32 35 -219 170 -255 184 -8 3 -73 -78 -168 -208z m257 -23 c34 -32 36 -38 31
-77 -10 -73 -86 -103 -142 -55 l-26 22 42 73 c23 39 45 72 50 72 4 0 24 -16
45 -35z"/>
<path d="M2957 10072 l-67 -68 0 -154 0 -155 -90 90 -89 89 -53 -50 c-29 -27
-53 -52 -53 -55 0 -7 418 -479 425 -479 3 0 34 26 68 58 l63 57 -106 99 c-58
54 -105 100 -103 102 2 1 93 -10 203 -26 227 -33 206 -36 294 54 31 32 40 47
30 50 -8 2 -102 16 -209 31 -107 14 -196 28 -198 30 -2 2 -12 89 -21 194 -9
104 -19 192 -22 195 -3 3 -35 -25 -72 -62z"/>
<path d="M9516 9905 c-116 -41 -146 -155 -78 -295 20 -41 32 -80 32 -106 0
-38 -3 -43 -35 -58 -26 -13 -40 -14 -54 -6 -29 15 -66 68 -86 123 -15 40 -22
48 -39 43 -12 -2 -43 -8 -69 -12 l-49 -7 7 -35 c25 -133 106 -237 207 -267
135 -39 271 32 297 155 13 59 8 84 -30 160 -15 30 -32 72 -37 93 -10 34 -8 39
14 53 22 15 26 15 50 -1 14 -9 39 -36 57 -61 17 -24 36 -44 41 -44 21 0 110
38 114 48 5 17 -33 84 -77 134 -75 85 -173 116 -265 83z"/>
<path d="M10145 9675 c-34 -33 -34 -93 -2 -123 54 -51 147 -12 147 61 0 76
-93 115 -145 62z"/>
<path d="M2378 9535 c-27 -35 -48 -68 -47 -72 0 -4 74 -62 164 -128 l163 -120
-261 -5 -261 -5 -53 -65 c-29 -36 -52 -69 -52 -75 0 -5 111 -99 246 -207 l247
-197 52 72 c29 40 53 75 54 79 0 4 -62 55 -137 115 l-138 108 70 6 c39 4 145
7 236 8 l165 1 57 66 c31 36 57 69 57 74 0 9 -484 398 -503 405 -7 2 -33 -25
-59 -60z"/>
<path d="M9754 9327 l-232 -212 53 -54 53 -54 24 19 c108 86 458 388 458 396
0 14 -101 118 -114 117 -6 0 -115 -96 -242 -212z"/>
<path d="M10167 9284 l-67 -45 35 -46 c20 -26 34 -50 33 -54 -2 -4 -91 -71
-198 -149 -107 -78 -197 -143 -199 -145 -3 -3 41 -78 77 -133 7 -10 61 21 222
127 117 78 217 141 221 141 4 0 21 -18 39 -40 l31 -39 57 25 c31 14 60 28 64
33 6 5 -205 323 -241 363 -4 4 -37 -13 -74 -38z"/>
<path d="M10270 8680 c-157 -82 -289 -151 -294 -153 -6 -2 150 -302 171 -326
7 -9 133 59 133 70 0 6 -18 45 -41 85 l-40 74 46 20 c26 11 50 20 53 20 4 0
24 -32 45 -70 21 -39 40 -70 41 -70 2 0 34 14 70 31 l67 31 -41 74 c-22 40
-40 75 -40 78 0 7 81 49 84 44 2 -2 20 -32 41 -68 20 -36 38 -66 40 -68 3 -3
135 55 142 62 6 5 -171 309 -182 312 -5 2 -138 -64 -295 -146z"/>
<path d="M1731 8620 c-23 -44 -41 -84 -39 -89 4 -13 461 -501 468 -501 3 0 22
31 42 69 l37 68 -43 42 -44 43 46 99 45 98 75 3 74 3 40 73 c22 40 39 75 37
77 -5 4 -654 95 -680 95 -9 0 -33 -33 -58 -80z m342 -136 l37 -6 -27 -49 c-16
-27 -31 -49 -34 -49 -3 0 -30 27 -59 61 l-53 61 49 -7 c27 -3 66 -8 87 -11z"/>
<path d="M10675 8240 c-33 -14 -66 -51 -87 -97 -16 -37 -18 -57 -13 -117 6
-62 4 -79 -13 -113 -16 -31 -29 -42 -54 -47 -69 -14 -106 52 -89 161 6 38 5
56 -3 58 -66 22 -121 34 -127 28 -17 -17 -30 -145 -20 -199 13 -68 30 -100 78
-145 46 -44 62 -53 131 -69 71 -16 138 0 185 45 52 50 67 91 67 183 0 103 8
140 33 153 30 17 55 -16 74 -99 17 -70 18 -72 48 -72 16 0 47 -3 68 -6 l37 -7
0 51 c0 66 -33 169 -71 221 -17 25 -48 50 -72 62 -44 19 -136 25 -172 9z"/>
<path d="M1490 8108 c-37 -64 -70 -167 -70 -217 0 -110 88 -235 212 -302 54
-29 73 -34 133 -34 174 0 335 144 365 328 4 28 5 55 2 58 -6 6 -160 49 -173
49 -3 0 -3 -28 -1 -62 6 -114 -51 -178 -160 -178 -68 0 -103 15 -146 64 -59
67 -50 148 24 235 20 23 35 44 32 46 -6 6 -168 65 -178 65 -5 0 -23 -24 -40
-52z"/>
<path d="M2130 7728 c-17 -29 -18 -34 -4 -67 25 -59 43 -81 68 -81 13 0 29 7
36 15 29 35 -19 165 -61 165 -11 0 -28 -14 -39 -32z"/>
<path d="M10730 7647 c-168 -50 -307 -92 -309 -93 -7 -6 47 -139 56 -138 32 5
600 148 605 153 6 6 -38 173 -45 170 -1 -1 -139 -42 -307 -92z"/>
<path d="M7103 1977 c-133 -29 -244 -54 -247 -57 -3 -3 0 -36 6 -73 8 -51 15
-67 27 -67 9 0 67 9 130 21 62 11 116 19 121 17 5 -2 -31 -127 -80 -278 -49
-151 -88 -275 -87 -276 5 -5 162 19 170 26 8 7 247 716 247 733 0 13 -40 6
-287 -46z"/>
<path d="M5055 1998 c-2 -13 -6 -43 -7 -67 -3 -42 -2 -44 32 -56 19 -6 36 -18
38 -26 1 -8 -20 -124 -47 -259 -28 -135 -47 -248 -43 -251 14 -12 133 -32 141
-23 9 10 143 655 137 661 -2 2 -48 11 -102 19 -55 7 -109 16 -121 19 -17 4
-24 0 -28 -17z"/>
<path d="M5713 1913 c-97 -34 -190 -169 -181 -261 12 -123 99 -208 232 -227
l48 -8 -93 -93 -94 -94 77 0 c42 0 83 -3 92 -6 36 -14 213 191 277 322 62 125
40 246 -59 321 -78 59 -206 79 -299 46z m168 -149 c29 -15 59 -65 59 -100 0
-30 -30 -80 -59 -97 -36 -21 -73 -22 -111 -2 -42 21 -60 53 -60 103 0 37 6 50
34 78 39 39 86 45 137 18z"/>
<path d="M6420 1921 c-77 -24 -145 -88 -186 -175 -29 -63 -30 -99 -4 -170 35
-92 132 -156 237 -156 18 0 33 -3 33 -6 0 -3 -36 -47 -80 -97 l-80 -92 86 -3
87 -3 50 48 c55 54 165 214 197 287 87 195 -40 379 -259 375 -31 0 -67 -4 -81
-8z m148 -157 c70 -49 66 -161 -8 -199 -102 -53 -208 53 -155 155 21 41 53 60
100 60 22 0 51 -7 63 -16z"/>
</g>
</svg>
